<?xml version="1.0" encoding="UTF-8" standalone="no"?>
<svg
   xmlns:dc="http://purl.org/dc/elements/1.1/"
   xmlns:cc="http://creativecommons.org/ns#"
   xmlns:rdf="http://www.w3.org/1999/02/22-rdf-syntax-ns#"
   xmlns:svg="http://www.w3.org/2000/svg"
   xmlns="http://www.w3.org/2000/svg"
   xmlns:xlink="http://www.w3.org/1999/xlink"
   xmlns:sodipodi="http://sodipodi.sourceforge.net/DTD/sodipodi-0.dtd"
   xmlns:inkscape="http://www.inkscape.org/namespaces/inkscape"
   viewBox="0 0 512 512"
   version="1.1"
   id="svg10"
   sodipodi:docname="14-mail.svg"
   inkscape:version="0.92.3 (2405546, 2018-03-11)">
  <metadata
     id="metadata16">
    <rdf:RDF>
      <cc:Work
         rdf:about="">
        <dc:format>image/svg+xml</dc:format>
        <dc:type
           rdf:resource="http://purl.org/dc/dcmitype/StillImage" />
      </cc:Work>
    </rdf:RDF>
  </metadata>
  <defs
     id="defs14">
    <linearGradient
       id="linearGradient6282">
      <stop
         style="stop-color:#1f1f1f;stop-opacity:1;"
         offset="0"
         id="stop6284" />
      <stop
         style="stop-color:#3d3d3d;stop-opacity:1;"
         offset="0.9054054"
         id="stop6286" />
      <stop
         style="stop-color:#6b6b6b;stop-opacity:1;"
         offset="1"
         id="stop6288" />
    </linearGradient>
    <linearGradient
       id="linearGradient5727">
      <stop
         style="stop-color:#1f1f1f;stop-opacity:1;"
         offset="0"
         id="stop5729" />
      <stop
         style="stop-color:#3d3d3d;stop-opacity:1;"
         offset="0.81531531"
         id="stop5733" />
      <stop
         style="stop-color:#6b6b6b;stop-opacity:1;"
         offset="1"
         id="stop5731" />
    </linearGradient>
    <linearGradient
       inkscape:collect="always"
       id="linearGradient5309">
      <stop
         style="stop-color:#000000;stop-opacity:1;"
         offset="0"
         id="stop5311" />
      <stop
         style="stop-color:#000000;stop-opacity:0;"
         offset="1"
         id="stop5313" />
    </linearGradient>
    <linearGradient
       inkscape:collect="always"
       id="linearGradient5040">
      <stop
         style="stop-color:#ffffff;stop-opacity:1;"
         offset="0"
         id="stop5042" />
      <stop
         style="stop-color:#ffffff;stop-opacity:0;"
         offset="1"
         id="stop5044" />
    </linearGradient>
    <linearGradient
       inkscape:collect="always"
       id="linearGradient4497">
      <stop
         style="stop-color:#525252;stop-opacity:1;"
         offset="0"
         id="stop4499" />
      <stop
         style="stop-color:#525252;stop-opacity:0;"
         offset="1"
         id="stop4501" />
    </linearGradient>
    <linearGradient
       id="linearGradient4371">
      <stop
         style="stop-color:#8a9f7d;stop-opacity:1;"
         offset="0"
         id="stop4373" />
      <stop
         style="stop-color:#bbcbaf;stop-opacity:1;"
         offset="0.76126128"
         id="stop4404" />
      <stop
         style="stop-color:#edffd9;stop-opacity:1;"
         offset="1"
         id="stop4375" />
    </linearGradient>
    <linearGradient
       id="linearGradient2923">
      <stop
         style="stop-color:#5f4721;stop-opacity:1;"
         offset="0"
         id="stop2925" />
      <stop
         style="stop-color:#dab475;stop-opacity:1;"
         offset="1"
         id="stop2927" />
    </linearGradient>
    <linearGradient
       id="linearGradient2598">
      <stop
         style="stop-color:#252525;stop-opacity:1;"
         offset="0"
         id="stop2505" />
      <stop
         style="stop-color:#252525;stop-opacity:1;"
         offset="0.5"
         id="stop2507" />
      <stop
         style="stop-color:#252525;stop-opacity:1;"
         offset="0.75"
         id="stop2509" />
      <stop
         style="stop-color:#000000;stop-opacity:1;"
         offset="1"
         id="stop2511" />
    </linearGradient>
    <linearGradient
       id="linearGradient3311">
      <stop
         style="stop-color:#2d2d2d;stop-opacity:1;"
         offset="0"
         id="stop3313" />
      <stop
         style="stop-color:#000000;stop-opacity:1;"
         offset="0.5"
         id="stop3319" />
      <stop
         style="stop-color:#000000;stop-opacity:1;"
         offset="1"
         id="stop3315" />
    </linearGradient>
    <linearGradient
       id="linearGradient3303">
      <stop
         style="stop-color:#ffffff;stop-opacity:0.68345326;"
         offset="0"
         id="stop3305" />
      <stop
         style="stop-color:#ffffff;stop-opacity:0;"
         offset="1"
         id="stop3307" />
    </linearGradient>
    <linearGradient
       id="linearGradient3225">
      <stop
         style="stop-color:#ffffff;stop-opacity:1;"
         offset="0"
         id="stop3227" />
      <stop
         style="stop-color:#aeaeae;stop-opacity:1;"
         offset="1"
         id="stop3229" />
    </linearGradient>
    <linearGradient
       id="linearGradient3207">
      <stop
         style="stop-color:#ffffff;stop-opacity:1;"
         offset="0"
         id="stop3209" />
      <stop
         style="stop-color:#252525;stop-opacity:0;"
         offset="1"
         id="stop3211" />
    </linearGradient>
    <linearGradient
       id="linearGradient3251">
      <stop
         style="stop-color:#000000;stop-opacity:1;"
         offset="0"
         id="stop3253" />
      <stop
         style="stop-color:#131313;stop-opacity:0;"
         offset="1"
         id="stop3255" />
    </linearGradient>
    <linearGradient
       id="linearGradient3273">
      <stop
         style="stop-color:#ffffff;stop-opacity:0.55035973;"
         offset="0"
         id="stop3275" />
      <stop
         style="stop-color:#ffffff;stop-opacity:0;"
         offset="1"
         id="stop3277" />
    </linearGradient>
    <linearGradient
       id="linearGradient3259">
      <stop
         style="stop-color:#ffffff;stop-opacity:0.55035973;"
         offset="0"
         id="stop3261" />
      <stop
         style="stop-color:#000000;stop-opacity:0;"
         offset="1"
         id="stop3263" />
    </linearGradient>
    <linearGradient
       id="linearGradient3075">
      <stop
         style="stop-color:#ffffff;stop-opacity:1;"
         offset="0"
         id="stop3077" />
      <stop
         style="stop-color:#ffffff;stop-opacity:1;"
         offset="0.42597079"
         id="stop3093" />
      <stop
         style="stop-color:#f1f1f1;stop-opacity:1;"
         offset="0.5892781"
         id="stop3085" />
      <stop
         style="stop-color:#eaeaea;stop-opacity:1;"
         offset="0.80219781"
         id="stop3087" />
      <stop
         style="stop-color:#dfdfdf;stop-opacity:1;"
         offset="1"
         id="stop3079" />
    </linearGradient>
    <linearGradient
       id="linearGradient3149">
      <stop
         style="stop-color:#8e8e8e;stop-opacity:1;"
         offset="0"
         id="stop3151" />
      <stop
         style="stop-color:#f8f8f8;stop-opacity:1;"
         offset="1"
         id="stop3153" />
    </linearGradient>
    <linearGradient
       id="linearGradient7264">
      <stop
         style="stop-color:#ffffff;stop-opacity:0;"
         offset="0"
         id="stop7266" />
      <stop
         style="stop-color:#ffffff;stop-opacity:0;"
         offset="0.13036872"
         id="stop7274" />
      <stop
         style="stop-color:#ffffff;stop-opacity:1;"
         offset="0.27147371"
         id="stop7272" />
      <stop
         style="stop-color:#ffffff;stop-opacity:0;"
         offset="0.31674936"
         id="stop7276" />
      <stop
         style="stop-color:#ffffff;stop-opacity:0;"
         offset="1"
         id="stop7268" />
    </linearGradient>
    <radialGradient
       xlink:href="#linearGradient2923"
       spreadMethod="reflect"
       r="53.944607"
       inkscape:collect="always"
       id="radialGradient2099"
       gradientUnits="userSpaceOnUse"
       gradientTransform="matrix(2.165894,-0.30139,0.521619,3.706325,-9.244956,-94.97306)"
       fy="33.488747"
       fx="3.9837308"
       cy="33.488747"
       cx="3.9837308" />
    <linearGradient
       y2="117.03985"
       y1="-33.962685"
       xlink:href="#linearGradient5040"
       x2="68.235802"
       x1="6.0279064"
       inkscape:collect="always"
       id="linearGradient2935"
       gradientUnits="userSpaceOnUse"
       gradientTransform="matrix(0.990578,0,0,0.993828,0.884817,0.7491)" />
    <linearGradient
       id="linearGradient4067">
      <stop
         style="stop-color:#ffffff;stop-opacity:0.6978417;"
         offset="0"
         id="stop4069" />
      <stop
         style="stop-color:#ffffff;stop-opacity:0.18705036;"
         offset="0.5"
         id="stop4120" />
      <stop
         style="stop-color:#ffffff;stop-opacity:0"
         offset="1"
         id="stop4071" />
    </linearGradient>
    <linearGradient
       id="linearGradient4142">
      <stop
         style="stop-color:#ffffff;stop-opacity:1;"
         offset="0"
         id="stop4144" />
      <stop
         style="stop-color:#ffffff;stop-opacity:0.79136693;"
         offset="0.5"
         id="stop4148" />
      <stop
         style="stop-color:#ffffff;stop-opacity:0;"
         offset="1"
         id="stop4146" />
    </linearGradient>
    <linearGradient
       id="linearGradient4293">
      <stop
         style="stop-color:#ce0000;stop-opacity:1;"
         offset="0"
         id="stop4295" />
      <stop
         style="stop-color:#a30000;stop-opacity:1;"
         offset="1"
         id="stop4297" />
    </linearGradient>
    <linearGradient
       id="linearGradient5490">
      <stop
         style="stop-color:#000000;stop-opacity:0;"
         offset="0"
         id="stop5492" />
      <stop
         style="stop-color:#000000;stop-opacity:0;"
         offset="0.44935718"
         id="stop5504" />
      <stop
         style="stop-color:#000000;stop-opacity:1;"
         offset="0.50785339"
         id="stop5502" />
      <stop
         style="stop-color:#000000;stop-opacity:0;"
         offset="0.5980373"
         id="stop5506" />
      <stop
         style="stop-color:#000000;stop-opacity:0;"
         offset="1"
         id="stop5494" />
    </linearGradient>
    <linearGradient
       id="linearGradient3139">
      <stop
         style="stop-color:#000000;stop-opacity:1;"
         offset="0"
         id="stop3141" />
      <stop
         style="stop-color:#000000;stop-opacity:0.68235294;"
         offset="0.40659341"
         id="stop3162" />
      <stop
         style="stop-color:#000000;stop-opacity:0.48736462;"
         offset="0.45329672"
         id="stop3164" />
      <stop
         style="stop-color:#000000;stop-opacity:0.36101082;"
         offset="0.5"
         id="stop3158" />
      <stop
         style="stop-color:#000000;stop-opacity:0.15162455;"
         offset="0.70604396"
         id="stop3160" />
      <stop
         style="stop-color:#000000;stop-opacity:0;"
         offset="1"
         id="stop3143" />
    </linearGradient>
    <linearGradient
       id="linearGradient4181">
      <stop
         style="stop-color:#000000;stop-opacity:0.29602888;"
         offset="0"
         id="stop4183" />
      <stop
         style="stop-color:#000000;stop-opacity:0;"
         offset="1"
         id="stop4185" />
    </linearGradient>
    <linearGradient
       id="linearGradient4206">
      <stop
         style="stop-color:#f7f7f7;stop-opacity:1;"
         offset="0"
         id="stop4208" />
      <stop
         style="stop-color:#f7f7f7;stop-opacity:0;"
         offset="1"
         id="stop4210" />
    </linearGradient>
    <radialGradient
       xlink:href="#linearGradient3075"
       r="45"
       inkscape:collect="always"
       id="radialGradient6253"
       gradientUnits="userSpaceOnUse"
       gradientTransform="matrix(2.888472,-5.288986e-2,5.892076e-2,3.079452,42.93675,-212.2837)"
       fy="106.49996"
       fx="-25"
       cy="106.49996"
       cx="-25" />
    <radialGradient
       xlink:href="#linearGradient3139"
       r="46"
       inkscape:collect="always"
       id="radialGradient6255"
       gradientUnits="userSpaceOnUse"
       gradientTransform="matrix(0.778981,-0.705005,0.742951,0.820909,-84.56197,13.42081)"
       fy="99.774971"
       fx="-24.85253"
       cy="99.774971"
       cx="-24.85253" />
    <linearGradient
       y2="97.761848"
       y1="103.68449"
       xlink:href="#linearGradient3149"
       x2="-44.159863"
       x1="-39.098888"
       inkscape:collect="always"
       id="linearGradient6257"
       gradientUnits="userSpaceOnUse" />
    <clipPath
       id="clipPath4470"
       clipPathUnits="userSpaceOnUse">
      <rect
         y="5.6705303"
         x="303.60229"
         width="80.256584"
         style="opacity:1;fill:none;fill-opacity:1;stroke:url(#linearGradient4474);stroke-width:1.09500003;stroke-linecap:round;stroke-linejoin:round;stroke-miterlimit:4;stroke-dasharray:none;stroke-dashoffset:1.08779998;stroke-opacity:1"
         ry="5.0594401"
         rx="5.0452495"
         id="rect4472"
         height="118.36752" />
    </clipPath>
    <linearGradient
       y2="0.071895011"
       y1="39.054958"
       xlink:href="#linearGradient5309"
       x2="61.220615"
       x1="61.220615"
       inkscape:collect="always"
       id="linearGradient4474"
       gradientUnits="userSpaceOnUse"
       gradientTransform="translate(278.49999,0)" />
    <radialGradient
       xlink:href="#linearGradient5040"
       spreadMethod="reflect"
       r="27.9375"
       inkscape:collect="always"
       id="radialGradient4529"
       gradientUnits="userSpaceOnUse"
       gradientTransform="matrix(1.0038858,-1.2642465e-7,6.444697e-7,5.1174672,123.09278,-252.979)"
       fy="62.106869"
       fx="-226.90961"
       cy="62.106869"
       cx="-226.90961" />
    <filter
       y="-0.071174443"
       x="-0.15078791"
       width="1.3015758"
       inkscape:collect="always"
       id="filter4623"
       height="1.1423489">
      <feGaussianBlur
         stdDeviation="3.5105311"
         inkscape:collect="always"
         id="feGaussianBlur4625" />
    </filter>
    <clipPath
       id="clipPath4631"
       clipPathUnits="userSpaceOnUse">
      <rect
         y="5.6705303"
         x="-121.33545"
         width="80.256584"
         style="opacity:0.38461537;fill:url(#radialGradient4635);fill-opacity:1;stroke:none;stroke-width:1.09500003;stroke-linecap:round;stroke-linejoin:round;stroke-miterlimit:4;stroke-dasharray:none;stroke-dashoffset:1.08779998;stroke-opacity:1"
         ry="5.0594401"
         rx="5.0452495"
         id="rect4633"
         height="118.36752" />
    </clipPath>
    <radialGradient
       xlink:href="#linearGradient4497"
       r="40.128292"
       inkscape:collect="always"
       id="radialGradient4635"
       gradientUnits="userSpaceOnUse"
       gradientTransform="matrix(1,0,0,4.4661242,-145.66399,-62.54019)"
       fy="10.611995"
       fx="64.456841"
       cy="10.611995"
       cx="64.456841" />
    <clipPath
       id="clipPath5085"
       clipPathUnits="userSpaceOnUse">
      <rect
         y="6"
         x="-55"
         width="24.500031"
         style="opacity:1;fill:#ffffff;fill-opacity:1;stroke:none;stroke-width:1.09500003;stroke-linecap:round;stroke-linejoin:round;stroke-miterlimit:4;stroke-dasharray:none;stroke-dashoffset:1.08779998;stroke-opacity:1"
         ry="5.0453572"
         rx="4.9662552"
         id="rect5087"
         height="21.038065" />
    </clipPath>
    <clipPath
       id="clipPath5191"
       clipPathUnits="userSpaceOnUse">
      <rect
         y="12.5"
         x="-61"
         width="61"
         style="opacity:1;fill:#2c2c2c;fill-opacity:1;stroke:none;stroke-width:1.09500003;stroke-linecap:round;stroke-linejoin:round;stroke-miterlimit:4;stroke-dasharray:none;stroke-dashoffset:1.08779998;stroke-opacity:1"
         ry="1.4009252"
         rx="1.2388948"
         id="rect5193"
         height="15" />
    </clipPath>
  </defs>
  <sodipodi:namedview
     pagecolor="#ffffff"
     bordercolor="#666666"
     borderopacity="1"
     objecttolerance="10"
     gridtolerance="10"
     guidetolerance="10"
     inkscape:pageopacity="0"
     inkscape:pageshadow="2"
     inkscape:window-width="1366"
     inkscape:window-height="703"
     id="namedview12"
     showgrid="false"
     inkscape:zoom="0.65186406"
     inkscape:cx="521.72326"
     inkscape:cy="398.625"
     inkscape:window-x="0"
     inkscape:window-y="0"
     inkscape:window-maximized="1"
     inkscape:current-layer="g5804" />
  <g
     id="layer4"
     inkscape:label="box"
     style="display:inline"
     transform="matrix(3.0451211,0,0,3.0451211,-977.86955,2644.9398)" />
  <g
     id="layer5"
     inkscape:label="zip_app"
     style="display:inline"
     transform="matrix(3.0451211,0,0,3.0451211,-977.86955,2644.9398)" />
  <rect
     height="0"
     id="rect1327"
     style="opacity:0.57786889;fill:#ffffff;fill-opacity:1;fill-rule:nonzero;stroke:none;stroke-width:11.0598793;stroke-linecap:round;stroke-linejoin:round;stroke-miterlimit:4;stroke-dasharray:none;stroke-dashoffset:4;stroke-opacity:1"
     width="3.0451212"
     x="-975.06738"
     y="2694.0508" />
  <g
     id="g6036"
     transform="matrix(1.1827713,0,0,1.1827713,8.0996329,1138.6004)">
    <g
       id="g5804"
       transform="matrix(0.5714289,0,0,0.6499119,42.857213,37.802467)">
      <path
         style="fill:#000000;stroke-width:0.19855052"
         d="m 101.2718,-911.53112 c -4.067262,-0.57625 -7.326831,-1.46977 -10.150004,-2.78235 -8.607761,-4.00205 -14.330081,-10.84886 -16.242065,-19.43383 -0.382751,-1.71852 -0.395684,-9.28553 -0.456479,-266.884 -0.04606,-195.1375 2.21e-4,-265.6712 0.175274,-267.2211 0.563293,-4.9865 2.449339,-9.4634 5.640081,-13.3874 4.900998,-6.0274 12.582502,-10.0907 20.859683,-11.0343 1.25212,-0.1428 58.13513,-0.1846 196.6747,-0.1445 l 194.91304,0.056 1.81876,0.4004 c 6.32891,1.3937 10.74591,3.5412 15.02834,7.3066 5.65482,4.9722 8.50515,10.5651 9.10757,17.8708 0.1357,1.6454 0.1874,94.7078 0.14812,266.7117 -0.0567,248.51271 -0.0818,264.2842 -0.42302,265.8656 -1.37784,6.38645 -4.31678,11.26217 -9.32478,15.46976 -4.10797,3.45147 -8.76711,5.62712 -14.76688,6.89555 -1.52404,0.3222 -9.47374,0.33676 -197.03051,0.36076 -107.49337,0.0138 -195.68068,-0.009 -195.97183,-0.05 z m 389.61993,-5.28395 c 10.84837,-1.18502 19.23749,-8.14956 21.40492,-17.77003 0.24948,-1.10737 0.29362,-41.29841 0.29362,-267.4425 0,-258.9952 -0.0107,-266.1818 -0.3948,-267.7218 -2.3423,-9.3896 -10.65441,-16.1413 -21.30374,-17.3046 -2.42027,-0.2644 -385.46863,-0.27 -388.32264,-0.01 -11.003269,1.019 -19.810512,8.3411 -21.706579,18.0462 -0.313628,1.6053 -0.341926,23.7036 -0.341926,267.0874 0,238.58524 0.03316,265.50413 0.327556,266.99086 0.649917,3.2811 1.841831,5.96042 3.806173,8.55617 4.025255,5.319 10.285887,8.76275 17.358596,9.54832 2.22248,0.24685 386.62067,0.26241 388.87882,0.0156 z m -366.91477,-56.96068 c -3.42471,-0.4479 -6.43307,-3.13218 -7.35233,-6.5603 -0.46163,-1.72147 -0.46163,-22.95075 0,-24.67225 0.94878,-3.538 3.89634,-6.1044 7.5436,-6.568 1.78239,-0.2266 48.99199,-0.2252 50.77557,0 3.67895,0.4675 6.50739,2.8921 7.53504,6.4592 0.28596,0.9926 0.32196,2.7388 0.26673,12.9393 -0.0638,11.78069 -0.0643,11.79296 -0.55088,12.94128 -0.98373,2.32169 -3.05419,4.25807 -5.46819,5.11413 l -1.23739,0.43841 -25.1979,0.0262 c -13.85883,0.0143 -25.70022,-0.0395 -26.31425,-0.11981 z m 88.75819,0.002 c -3.10121,-0.39976 -5.90157,-2.65469 -7.10664,-5.7224 l -0.49483,-1.26058 v -11.82221 c 0,-11.72456 0.004,-11.83316 0.47416,-13.14776 0.91064,-2.5457 2.97413,-4.5834 5.59999,-5.5297 l 1.12526,-0.4056 24.98612,-0.053 c 17.01056,-0.036 25.4545,0.011 26.45338,0.1465 3.55146,0.4829 6.43388,2.917 7.4279,6.2725 0.46889,1.5827 0.46889,23.66525 0,25.24799 -0.98363,3.32047 -3.8718,5.76497 -7.4129,6.27422 -1.49187,0.21453 -49.38772,0.21375 -51.05244,0 z m 88.68579,-0.004 c -3.37368,-0.4325 -6.44161,-3.16003 -7.3451,-6.53012 -0.45541,-1.69869 -0.47376,-22.70453 -0.0214,-24.58063 0.85839,-3.5607 3.86059,-6.217 7.55781,-6.6869 1.7824,-0.2266 48.992,-0.2252 50.77558,0 3.70407,0.4708 6.78634,3.1703 7.61658,6.6708 0.15623,0.6587 0.23316,4.7732 0.23147,12.38069 -0.004,9.28083 -0.0586,11.57955 -0.30508,12.39373 -1.05132,3.47296 -3.93112,5.90116 -7.54297,6.36018 -1.63306,0.20755 -49.34332,0.19895 -50.9668,-0.009 z m 110.96208,-0.0166 c -1.59567,-0.23385 -2.89764,-0.83143 -4.30174,-1.97442 -1.39232,-1.13337 -2.06435,-2.04932 -2.77642,-3.78419 l -0.4938,-1.20303 v -40.77271 c 0,-39.0513 0.0166,-40.8198 0.38934,-41.8897 0.91384,-2.6219 2.77815,-4.657 5.16846,-5.6419 l 1.21811,-0.5019 h 26.46838 26.46833 l 1.21811,0.5019 c 1.57308,0.6482 3.32313,2.1118 4.1362,3.4593 1.39748,2.316 1.29457,-0.9947 1.36115,43.793 0.0486,32.65411 0.007,40.85898 -0.21139,41.58857 -0.99998,3.34347 -4.01368,5.94089 -7.46404,6.4331 -1.6887,0.2409 -49.5334,0.2334 -51.18069,-0.008 z m -289.31625,-58.69485 c -3.12295,-0.7404 -5.83827,-3.5338 -6.54184,-6.7299 -0.17454,-0.7929 -0.22512,-4.4431 -0.17546,-12.6572 0.0691,-11.4236 0.0747,-11.5543 0.54344,-12.6451 0.26049,-0.6062 0.70702,-1.4524 0.99232,-1.8804 0.78845,-1.1829 2.88043,-2.7851 4.28925,-3.2851 l 1.22489,-0.4347 h 26.26108 26.26108 l 1.3914,0.6023 c 2.56901,1.112 4.48029,3.2934 5.16713,5.8973 0.28305,1.0732 0.32078,2.8987 0.26886,13.0132 l -0.0604,11.7649 -0.49878,1.0873 c -0.80419,1.753 -2.11382,3.2702 -3.58908,4.1578 -2.42082,1.4566 -0.46613,1.3656 -29.03602,1.3516 -19.52677,-0.01 -25.75759,-0.067 -26.49785,-0.242 z m 88.45694,-0.1104 c -3.06539,-0.8649 -5.43083,-3.3458 -6.18904,-6.4913 -0.43747,-1.8149 -0.43747,-22.4527 0,-24.2676 0.77821,-3.2283 3.27309,-5.7543 6.48447,-6.5654 1.05805,-0.2672 3.84851,-0.2927 26.99773,-0.2479 l 25.81772,0.05 1.25566,0.517 c 2.54974,1.0499 4.22035,2.7728 5.12947,5.29 l 0.49664,1.375 -0.004,11.6755 c -0.004,12.6293 0.004,12.5805 -1.1715,14.6879 -0.80846,1.4529 -2.52959,2.9249 -4.26472,3.6475 l -1.44305,0.6009 -25.93898,0.038 c -24.81541,0.036 -25.9924,0.023 -27.1719,-0.3099 z m 89.15753,0.1624 c -2.7594,-0.5716 -5.30612,-2.8513 -6.42946,-5.7551 -0.371,-0.959 -0.39613,-1.7918 -0.39613,-13.1255 v -12.1014 l 0.47737,-1.1021 c 1.02585,-2.3682 3.09377,-4.3872 5.29344,-5.1682 l 1.21686,-0.4321 h 26.26108 26.26112 l 1.43108,0.6195 c 0.78709,0.3407 1.89606,1.0282 2.46433,1.5279 1.17843,1.0361 2.41253,3.0594 2.75766,4.521 0.16153,0.6842 0.21599,4.6804 0.17435,12.802 l -0.0605,11.8073 -0.49877,1.0873 c -0.80419,1.753 -2.11379,3.2702 -3.58908,4.1578 -2.4216,1.4571 -0.46348,1.3664 -29.03602,1.3454 -14.04151,-0.01 -25.88884,-0.093 -26.32733,-0.1838 z m -177.17601,-58.5158 c -3.32177,-0.6493 -5.98945,-3.1648 -6.8806,-6.488 -0.46734,-1.7429 -0.46112,-22.9525 0.007,-24.6996 0.68408,-2.5516 2.68206,-4.8604 5.11426,-5.9098 l 1.22972,-0.5306 26.29299,-0.049 26.29299,-0.049 1.20101,0.3951 c 2.32867,0.7661 4.44533,2.742 5.43172,5.0705 0.48588,1.147 0.48706,1.1736 0.55567,12.7854 0.0484,8.1897 -0.004,11.9669 -0.17332,12.7531 -0.74196,3.4234 -3.73366,6.2072 -7.28549,6.7793 -1.88446,0.3035 -50.21431,0.2507 -51.78617,-0.057 z m 88.94334,0.055 c -3.02096,-0.5206 -5.60007,-2.673 -6.87348,-5.7362 -0.41577,-1.0001 -0.43585,-1.4994 -0.4993,-12.419 -0.0731,-12.5852 -0.0382,-13.0152 1.24243,-15.3074 0.81005,-1.45 2.48055,-2.9307 4.13896,-3.6687 l 1.24066,-0.5522 h 26.57869 26.57866 l 1.40827,0.6096 c 2.35958,1.0213 4.2069,3.1056 4.93703,5.5702 0.48997,1.6539 0.46768,23.9287 -0.0254,25.3899 -1.09707,3.251 -3.82105,5.5768 -7.16176,6.1149 -1.53815,0.2477 -50.12706,0.2468 -51.56481,0 z m 88.74968,0 c -3.40562,-0.5893 -6.22659,-3.18 -7.12967,-6.5478 -0.45382,-1.6924 -0.46042,-22.7025 -0.008,-24.5809 0.61599,-2.5557 2.66382,-4.9652 5.12093,-6.025 l 1.23801,-0.5341 26.29295,-0.049 26.29299,-0.049 1.20105,0.3951 c 2.32775,0.7658 4.55414,2.867 5.50516,5.1959 0.39664,0.9712 0.42173,1.6286 0.48684,12.7531 0.0495,8.4506 0,12.0153 -0.17889,12.7531 -0.82346,3.4061 -3.78244,6.1221 -7.28457,6.6861 -1.52205,0.2452 -50.12135,0.2481 -51.5371,0 z m 110.98518,0 c -1.42614,-0.2479 -3.17896,-1.1051 -4.33133,-2.1183 -1.25894,-1.1069 -1.87415,-1.9867 -2.54868,-3.6446 l -0.49236,-1.2102 v -11.9152 -11.9153 l 0.49292,-1.2102 c 0.93381,-2.2927 2.66617,-4.102 4.93146,-5.1507 l 1.13978,-0.5277 h 26.57423 26.57423 l 1.21811,0.502 c 2.39032,0.9848 4.25462,3.0199 5.16846,5.6418 0.35998,1.0328 0.38935,1.981 0.38935,12.567 0,8.5348 -0.0677,11.7021 -0.26577,12.441 -0.41152,1.5345 -1.31446,2.9847 -2.63036,4.2247 -1.34073,1.2633 -2.86941,2.0353 -4.59684,2.3215 -1.38826,0.2301 -50.29795,0.2246 -51.6232,-0.01 z m -289.25288,-58.7194 c -2.10483,-0.5818 -4.3786,-2.3231 -5.44119,-4.1668 -1.18395,-2.0543 -1.20724,-2.3635 -1.13587,-15.0827 0.0647,-11.5198 0.0714,-11.6801 0.53422,-12.7557 1.21631,-2.8265 3.50485,-4.788 6.32828,-5.424 1.13355,-0.2553 4.29806,-0.2835 26.8848,-0.2392 l 25.60008,0.05 1.2317,0.4369 c 2.53095,0.8978 4.83763,3.3994 5.53577,6.0035 0.47885,1.7862 0.4804,23.4001 0.004,25.0156 -0.7585,2.5605 -2.70969,4.7346 -5.16813,5.7589 l -1.38951,0.5789 -26.04488,0.036 c -21.119,0.029 -26.21366,-0.011 -26.93719,-0.2111 z m 88.72201,0 c -2.17922,-0.5988 -4.41221,-2.3606 -5.45991,-4.3078 -1.1135,-2.0696 -1.15746,-2.617 -1.15746,-14.412 0,-12.1411 0.028,-12.4397 1.3799,-14.7017 0.95625,-1.6 2.40888,-2.8219 4.28262,-3.6023 l 1.42363,-0.593 h 26.04488 c 20.60851,0 26.23216,0.05 26.94206,0.2393 2.34407,0.625 4.65921,2.6953 5.80341,5.1896 l 0.49878,1.0873 v 12.4738 12.4739 l -0.5798,1.1903 c -1.18535,2.4334 -3.26716,4.2181 -5.69546,4.8826 -1.22386,0.3349 -2.39477,0.3496 -26.93491,0.3377 -20.59602,-0.01 -25.83143,-0.061 -26.54774,-0.2577 z m 88.72194,0 c -1.38418,-0.3827 -2.61386,-1.0925 -3.79556,-2.1911 -1.15968,-1.0781 -1.55949,-1.6595 -2.2664,-3.2955 -0.4378,-1.0132 -0.45118,-1.3407 -0.5151,-12.6132 -0.0562,-9.9123 -0.0188,-11.7507 0.26101,-12.8112 0.65699,-2.4909 2.11135,-4.3988 4.28487,-5.6213 2.21025,-1.2431 0.88794,-1.1917 29.20146,-1.1362 l 25.60003,0.05 1.23175,0.437 c 2.4696,0.876 4.7776,3.3354 5.53754,5.9008 0.47608,1.6071 0.48389,23.4849 0.009,25.0882 -0.78717,2.6571 -2.63128,4.7288 -5.13913,5.7734 l -1.42736,0.5944 -26.04487,0.036 c -21.119,0.029 -26.21362,-0.011 -26.93716,-0.2111 z m 110.74656,-0.077 c -2.12502,-0.6485 -4.0205,-2.1565 -5.1042,-4.0609 -1.20507,-2.1176 -1.2058,-2.1264 -1.2058,-14.6769 0,-11.3985 0.006,-11.5593 0.46911,-12.854 0.9078,-2.5368 2.68493,-4.3714 5.26286,-5.4328 l 1.25569,-0.5171 h 26.25663 26.25662 l 1.25566,0.5171 c 2.54414,1.0475 4.36596,2.9249 5.25781,5.4183 0.46992,1.3136 0.47416,1.4297 0.47416,12.9616 0,11.4947 -0.006,11.652 -0.46912,12.9469 -0.88425,2.4711 -2.69196,4.3877 -5.13426,5.4431 l -1.17254,0.5069 -26.15073,0.042 c -24.73129,0.04 -26.21053,0.024 -27.25189,-0.2941 z m -288.27035,-78.0143 c -2.68217,-0.7579 -4.80601,-2.6651 -5.96278,-5.3545 -0.46208,-1.0744 -0.46945,-1.2472 -0.53617,-12.5391 -0.0462,-7.8268 0.007,-11.8328 0.16823,-12.6601 0.53364,-2.7379 2.5713,-5.2123 5.24536,-6.3698 l 1.41335,-0.6117 h 26.36694 26.36694 l 1.43465,0.5974 c 2.44378,1.0178 4.36,3.165 5.12292,5.7403 0.48323,1.6312 0.48323,23.4871 0,25.1183 -0.75997,2.5654 -3.06797,5.0248 -5.53758,5.9008 l -1.2317,0.437 -25.83316,0.038 c -24.34807,0.036 -25.90118,0.019 -27.017,-0.2966 z m 89.29558,0.146 c -3.23459,-0.6735 -6.02913,-3.405 -6.8139,-6.6602 -0.43497,-1.8044 -0.43342,-22.4505 0.004,-24.2561 0.66034,-2.7394 2.59315,-5.0452 5.16087,-6.1567 l 1.40543,-0.6083 25.93091,-0.05 c 23.20015,-0.044 26.05309,-0.018 27.09081,0.247 3.14324,0.8034 5.59678,3.2732 6.36958,6.4117 0.18434,0.7486 0.23419,4.2036 0.18541,12.8462 l -0.0667,11.8222 -0.49881,1.0873 c -1.11631,2.4335 -3.36923,4.4852 -5.69318,5.1846 -0.62906,0.1894 -6.18263,0.2462 -26.5229,0.2712 -15.04887,0.019 -26.0685,-0.039 -26.54933,-0.1394 z m 88.38638,-0.091 c -2.80578,-0.6666 -5.18426,-2.8098 -6.28255,-5.6611 -0.36879,-0.9573 -0.39447,-1.8117 -0.39447,-13.1254 v -12.1014 l 0.47745,-1.1023 c 0.26256,-0.6061 0.70603,-1.4452 0.98543,-1.8642 0.74276,-1.1144 2.69749,-2.6582 4.09493,-3.2339 l 1.21811,-0.5019 h 26.36248 26.36251 l 1.42732,0.5944 c 2.50789,1.0445 4.352,3.1162 5.13913,5.7734 0.47498,1.6033 0.46717,23.4811 -0.009,25.0881 -0.75997,2.5654 -3.06797,5.0248 -5.53758,5.9008 l -1.23174,0.437 -25.72723,0.036 c -22.11862,0.031 -25.88964,0 -26.88491,-0.2392 z m 111.31568,0.096 c -2.93411,-0.6144 -5.51956,-2.9101 -6.56313,-5.8276 -0.46989,-1.3137 -0.47416,-1.4299 -0.47416,-12.9616 0,-10.7667 0.0291,-11.7195 0.38934,-12.7531 0.91259,-2.6183 2.79237,-4.6565 5.22196,-5.6619 l 1.16461,-0.4819 25.92362,-0.05 c 23.24583,-0.045 26.04553,-0.02 27.10362,0.2479 2.99933,0.7574 5.20424,2.8426 6.29615,5.954 0.36021,1.0264 0.38924,1.9769 0.38924,12.7452 0,11.5317 -0.004,11.6479 -0.47416,12.9617 -0.89185,2.4931 -2.71367,4.3706 -5.25781,5.4183 l -1.25566,0.517 -25.83316,0.03 c -14.64301,0.017 -26.17847,-0.043 -26.63046,-0.1374 z m -287.81852,-58.4396 c -2.53493,-0.3345 -5.19226,-2.0905 -6.43229,-4.2502 -1.30234,-2.2684 -1.3131,-2.3994 -1.24634,-15.175 0.0604,-11.5579 0.0613,-11.5804 0.5497,-12.7885 0.97184,-2.404 3.02807,-4.3726 5.47284,-5.2395 l 1.23735,-0.4389 24.98615,-0.053 c 16.98023,-0.036 25.45627,0.011 26.45338,0.1465 3.61829,0.4912 6.40919,2.9156 7.42822,6.4528 0.28578,0.9918 0.32237,2.7454 0.27012,12.9392 l -0.0605,11.7918 -0.54797,1.2372 c -1.0379,2.3434 -3.01411,4.1739 -5.43345,5.0328 l -1.21797,0.4324 -25.1979,0.026 c -13.85883,0.014 -25.67645,-0.037 -26.26138,-0.1141 z m 88.78266,-0.021 c -2.6297,-0.3388 -5.25166,-2.0741 -6.49427,-4.2983 -1.28259,-2.2957 -1.31814,-2.7323 -1.24685,-15.3132 l 0.0644,-11.3712 0.56491,-1.2808 c 1.11023,-2.5171 2.99388,-4.2964 5.50714,-5.2022 l 1.12526,-0.4056 24.98612,-0.053 c 16.98023,-0.036 25.45627,0.011 26.45338,0.1466 3.55084,0.4819 6.43381,2.9164 7.4279,6.272 0.47586,1.6063 0.46823,23.6675 -0.009,25.2775 -0.98426,3.3225 -3.9638,5.7966 -7.52602,6.2492 -1.69784,0.2158 -49.16705,0.1958 -50.85329,-0.021 z m 88.77194,0.023 c -3.48414,-0.407 -6.58944,-3.1121 -7.50859,-6.5405 -0.45541,-1.6987 -0.47376,-22.7046 -0.0214,-24.5807 0.84597,-3.5092 3.79313,-6.1579 7.43504,-6.6823 1.77846,-0.2561 49.31672,-0.2425 51.11894,0.015 3.61392,0.5156 6.65982,3.3033 7.4118,6.7835 0.16912,0.7828 0.22203,4.5994 0.17682,12.7531 -0.0612,11.0489 -0.0857,11.6876 -0.48382,12.66 -0.95183,2.3244 -3.13098,4.3843 -5.5427,5.2396 l -1.23738,0.4388 -25.09201,0.025 c -13.80061,0.014 -25.6161,-0.036 -26.25662,-0.111 z m 110.91307,-0.022 c -3.12586,-0.403 -5.92553,-2.6434 -7.19352,-5.7566 l -0.49292,-1.2101 v -11.9153 -11.9153 l 0.49236,-1.2102 c 0.6812,-1.6743 1.34774,-2.6236 2.60807,-3.7144 1.2502,-1.082 2.73032,-1.7516 4.50841,-2.0397 1.59191,-0.2579 49.41208,-0.2841 51.18987,-0.028 3.01149,0.4337 5.70968,2.4598 6.94474,5.2147 0.76016,1.6957 0.88223,3.9939 0.7966,14.9961 -0.0675,8.6792 -0.13537,10.5819 -0.40501,11.3568 -1.19184,3.4256 -4.03981,5.79 -7.50457,6.2303 -1.78619,0.227 -49.17884,0.2194 -50.94403,-0.01 z m -287.03169,-69.8197 c -3.41119,-0.3504 -6.63137,-1.7153 -9.29515,-3.9401 -2.69008,-2.2466 -4.38553,-4.9539 -5.06879,-8.0936 -0.45313,-2.0823 -0.45051,-73.6161 0.004,-75.6991 0.67011,-3.0794 2.17466,-5.5107 4.86235,-7.8573 2.27362,-1.9851 4.68719,-3.1992 7.56681,-3.8062 1.7653,-0.372 2.35155,-0.3733 173.09364,-0.3746 171.27782,0 171.32277,0 172.99725,0.3752 5.1955,1.1684 9.46081,4.4197 11.43484,8.7167 1.35171,2.9423 1.25094,-0.3442 1.25094,40.802 0,41.1462 0.10077,37.8597 -1.25094,40.802 -1.93078,4.2028 -6.16355,7.4866 -11.31763,8.7802 l -1.61848,0.4062 -170.56217,0.023 c -93.80919,0.013 -171.25214,-0.048 -172.09546,-0.1344 z"
         id="path3839"
         inkscape:connector-curvature="0" />
    </g>
    <g
       id="g5964"
       transform="matrix(0.5714289,0,0,0.6499119,78.857213,77.802467)" />
  </g>
</svg>
