<?xml version="1.0" encoding="UTF-8" standalone="no"?>
<svg
   xmlns:dc="http://purl.org/dc/elements/1.1/"
   xmlns:cc="http://creativecommons.org/ns#"
   xmlns:rdf="http://www.w3.org/1999/02/22-rdf-syntax-ns#"
   xmlns:svg="http://www.w3.org/2000/svg"
   xmlns="http://www.w3.org/2000/svg"
   xmlns:sodipodi="http://sodipodi.sourceforge.net/DTD/sodipodi-0.dtd"
   xmlns:inkscape="http://www.inkscape.org/namespaces/inkscape"
   viewBox="0 0 512 512"
   version="1.1"
   id="svg1078"
   sodipodi:docname="22-loop-1.svg"
   inkscape:version="0.92.3 (2405546, 2018-03-11)">
  <metadata
     id="metadata1084">
    <rdf:RDF>
      <cc:Work
         rdf:about="">
        <dc:format>image/svg+xml</dc:format>
        <dc:type
           rdf:resource="http://purl.org/dc/dcmitype/StillImage" />
      </cc:Work>
    </rdf:RDF>
  </metadata>
  <defs
     id="defs1082" />
  <sodipodi:namedview
     pagecolor="#ffffff"
     bordercolor="#666666"
     borderopacity="1"
     objecttolerance="10"
     gridtolerance="10"
     guidetolerance="10"
     inkscape:pageopacity="0"
     inkscape:pageshadow="2"
     inkscape:window-width="640"
     inkscape:window-height="480"
     id="namedview1080"
     showgrid="false"
     inkscape:zoom="0.4609375"
     inkscape:cx="256"
     inkscape:cy="256"
     inkscape:window-x="0"
     inkscape:window-y="0"
     inkscape:window-maximized="0"
     inkscape:current-layer="svg1078" />
  <path
     d="M 316 106 L 316 136 L 181 136 C 147.86328 136 121 162.86328 121 196 L 121 307.58594 L 181 259.58203 L 181 196 L 316 196 L 316 226 L 391 166 L 316 106 z "
     id="path1070"
     style="fill:#000000" />
  <path
     d="M 391 204.41406 L 331 252.41797 L 331 316 L 256 316 L 196 316 L 196 286.00391 L 121.00391 346.00391 C 121.01953 346.01563 136.32813 358.26172 153.11328 371.69141 C 173.47656 387.98047 196 406 196 406 L 196 376 L 256 376 L 331 376 C 364.13672 376 391 349.13672 391 316 L 391 204.41406 z "
     id="path1074" />
</svg>
