<?xml version="1.0" encoding="UTF-8" standalone="no"?>
<svg
   xmlns:dc="http://purl.org/dc/elements/1.1/"
   xmlns:cc="http://creativecommons.org/ns#"
   xmlns:rdf="http://www.w3.org/1999/02/22-rdf-syntax-ns#"
   xmlns:svg="http://www.w3.org/2000/svg"
   xmlns="http://www.w3.org/2000/svg"
   xmlns:sodipodi="http://sodipodi.sourceforge.net/DTD/sodipodi-0.dtd"
   xmlns:inkscape="http://www.inkscape.org/namespaces/inkscape"
   viewBox="0 0 512 512"
   version="1.1"
   id="svg1100"
   sodipodi:docname="23-shuffle.svg"
   inkscape:version="0.92.3 (2405546, 2018-03-11)">
  <metadata
     id="metadata1106">
    <rdf:RDF>
      <cc:Work
         rdf:about="">
        <dc:format>image/svg+xml</dc:format>
        <dc:type
           rdf:resource="http://purl.org/dc/dcmitype/StillImage" />
      </cc:Work>
    </rdf:RDF>
  </metadata>
  <defs
     id="defs1104" />
  <sodipodi:namedview
     pagecolor="#ffffff"
     bordercolor="#666666"
     borderopacity="1"
     objecttolerance="10"
     gridtolerance="10"
     guidetolerance="10"
     inkscape:pageopacity="0"
     inkscape:pageshadow="2"
     inkscape:window-width="640"
     inkscape:window-height="480"
     id="namedview1102"
     showgrid="false"
     inkscape:zoom="0.4609375"
     inkscape:cx="256"
     inkscape:cy="256"
     inkscape:window-x="0"
     inkscape:window-y="0"
     inkscape:window-maximized="0"
     inkscape:current-layer="svg1100" />
  <path
     d="m406 166-75-60v30h-25.53125c-31.890625 0-61.671875 17.109375-77.738281 44.648438l-70.285157 120.46875c-5.359374 9.183593-15.277343 14.882812-25.914062 14.882812h-25.53125v60h25.53125c31.890625 0 61.671875-17.109375 77.738281-44.648438l70.285157-120.46875c5.359374-9.183593 15.277343-14.882812 25.914062-14.882812h25.53125v30zm0 0"
     fill="#384949"
     id="path1090"
     style="fill:#000000" />
  <path
     d="m157.445312 210.882812 8.960938 15.363282 33.578125-57.554688c-16.929687-20.15625-41.6875-32.691406-68.453125-32.691406h-25.53125v60h25.53125c10.636719 0 20.554688 5.699219 25.914062 14.882812zm0 0"
     fill="#384949"
     id="path1094"
     style="fill:#000000" />
  <path
     d="m331 316h-25.53125c-10.636719 0-20.554688-5.699219-25.914062-14.882812l-8.960938-15.363282-33.578125 57.554688c16.929687 20.15625 41.6875 32.691406 68.453125 32.691406h25.53125v30l75-60-75-60zm0 0"
     fill="#384949"
     id="path1096"
     style="fill:#000000" />
</svg>
