<?xml version="1.0" encoding="UTF-8" standalone="no"?>
<svg
   xmlns:dc="http://purl.org/dc/elements/1.1/"
   xmlns:cc="http://creativecommons.org/ns#"
   xmlns:rdf="http://www.w3.org/1999/02/22-rdf-syntax-ns#"
   xmlns:svg="http://www.w3.org/2000/svg"
   xmlns="http://www.w3.org/2000/svg"
   xmlns:sodipodi="http://sodipodi.sourceforge.net/DTD/sodipodi-0.dtd"
   xmlns:inkscape="http://www.inkscape.org/namespaces/inkscape"
   viewBox="0 0 512 512"
   version="1.1"
   id="svg12"
   sodipodi:docname="43-faster.svg"
   inkscape:version="0.92.3 (2405546, 2018-03-11)">
  <metadata
     id="metadata18">
    <rdf:RDF>
      <cc:Work
         rdf:about="">
        <dc:format>image/svg+xml</dc:format>
        <dc:type
           rdf:resource="http://purl.org/dc/dcmitype/StillImage" />
        <dc:title></dc:title>
      </cc:Work>
    </rdf:RDF>
  </metadata>
  <defs
     id="defs16" />
  <sodipodi:namedview
     pagecolor="#ffffff"
     bordercolor="#666666"
     borderopacity="1"
     objecttolerance="10"
     gridtolerance="10"
     guidetolerance="10"
     inkscape:pageopacity="0"
     inkscape:pageshadow="2"
     inkscape:window-width="1366"
     inkscape:window-height="703"
     id="namedview14"
     showgrid="false"
     inkscape:zoom="0.4609375"
     inkscape:cx="156.75985"
     inkscape:cy="320.15324"
     inkscape:window-x="0"
     inkscape:window-y="0"
     inkscape:window-maximized="1"
     inkscape:current-layer="g895" />
  <g
     id="g895"
     transform="translate(-180.06788,119.32172)">
    <g
       id="g903"
       transform="matrix(0.78767963,0,0,0.78767963,234.42183,-59.912227)">
      <g
         id="g820">
	<g
   id="g818">
		<path
   inkscape:connector-curvature="0"
   d="m 357.423,209.039 c -9.093,-9.093 -23.832,-9.093 -32.925,0 l -66.389,66.386 c -3.286,-0.779 -6.708,-1.203 -10.23,-1.203 -24.435,0 -44.316,19.897 -44.316,44.358 0,24.457 19.88,44.357 44.316,44.357 24.46,0 44.357,-19.9 44.357,-44.357 0,-3.523 -0.424,-6.945 -1.203,-10.231 l 66.389,-66.386 c 9.093,-9.092 9.093,-23.833 10e-4,-32.924 z"
   id="path816" />

	</g>

</g>
      <g
         id="g826">
	<g
   id="g824">
		<path
   inkscape:connector-curvature="0"
   d="M 437.083,120.099 C 337.246,20.262 174.765,20.262 74.877,120.102 c -86.213,86.257 -99.573,222.315 -31.769,323.513 7.156,10.683 21.618,13.535 32.3,6.38 10.681,-7.156 13.538,-21.617 6.38,-32.3 C 62.737,389.258 51.52,357.457 47.863,325.097 H 69.75 c 12.857,0 23.281,-10.422 23.281,-23.281 0,-12.856 -10.424,-23.281 -23.281,-23.281 H 47.789 C 52.008,239.863 66.9,202.32 92,170.742 l 15.842,15.842 c 4.546,4.547 10.504,6.821 16.461,6.821 5.958,0 11.917,-2.274 16.461,-6.821 9.092,-9.09 9.092,-23.832 0,-32.924 l -15.909,-15.91 c 32.054,-25.745 69.977,-40.674 108.842,-44.8 v 21.986 c 0,12.859 10.424,23.281 23.281,23.281 12.857,0 23.281,-10.422 23.281,-23.281 V 93.163 c 38.183,4.411 75.369,19.28 106.875,44.596 l -15.902,15.902 c -9.09,9.093 -9.09,23.832 0.003,32.927 4.544,4.544 10.504,6.818 16.459,6.818 5.96,0 11.917,-2.274 16.463,-6.821 l 15.826,-15.826 c 25.109,31.572 40.004,69.111 44.224,107.779 h -21.961 c -12.856,0 -23.281,10.425 -23.281,23.281 0,12.859 10.425,23.281 23.281,23.281 h 21.889 c -3.658,32.36 -14.878,64.159 -33.935,92.595 -7.16,10.68 -4.304,25.142 6.374,32.3 3.981,2.668 8.485,3.947 12.941,3.947 7.503,0 14.869,-3.622 19.362,-10.321 67.832,-101.21 54.461,-237.268 -31.794,-323.522 z"
   id="path822" />

	</g>

</g>
    </g>
    <g
       id="g834">
</g>
    <g
       id="g836">
</g>
    <g
       id="g838">
</g>
    <g
       id="g840">
</g>
    <g
       id="g842">
</g>
    <g
       id="g844">
</g>
    <g
       id="g846">
</g>
    <g
       id="g848">
</g>
    <g
       id="g850">
</g>
    <g
       id="g852">
</g>
    <g
       id="g854">
</g>
    <g
       id="g856">
</g>
    <g
       id="g858">
</g>
    <g
       id="g860">
</g>
    <g
       id="g862">
</g>
  </g>
</svg>
