<?xml version="1.0" encoding="iso-8859-1"?>
<!-- Generator: Adobe Illustrator 19.0.0, SVG Export Plug-In . SVG Version: 6.00 Build 0)  -->
<svg version="1.1" id="Layer_1" xmlns="http://www.w3.org/2000/svg" xmlns:xlink="http://www.w3.org/1999/xlink" x="0px" y="0px"
	 viewBox="0 0 512 512" style="enable-background:new 0 0 512 512;" xml:space="preserve">
<g>
	<g>
		<path d="M357.423,209.039c-9.093-9.093-23.832-9.093-32.925,0l-66.389,66.386c-3.286-0.779-6.708-1.203-10.23-1.203
			c-24.435,0-44.316,19.897-44.316,44.358c0,24.457,19.88,44.357,44.316,44.357c24.46,0,44.357-19.9,44.357-44.357
			c0-3.523-0.424-6.945-1.203-10.231l66.389-66.386C366.515,232.871,366.515,218.13,357.423,209.039z"/>
	</g>
</g>
<g>
	<g>
		<path d="M437.083,120.099c-99.837-99.837-262.318-99.837-362.206,0.003c-86.213,86.257-99.573,222.315-31.769,323.513
			c7.156,10.683,21.618,13.535,32.3,6.38c10.681-7.156,13.538-21.617,6.38-32.3c-19.051-28.437-30.268-60.238-33.925-92.598h21.887
			c12.857,0,23.281-10.422,23.281-23.281c0-12.856-10.424-23.281-23.281-23.281H47.789C52.008,239.863,66.9,202.32,92,170.742
			l15.842,15.842c4.546,4.547,10.504,6.821,16.461,6.821c5.958,0,11.917-2.274,16.461-6.821c9.092-9.09,9.092-23.832,0-32.924
			l-15.909-15.91c32.054-25.745,69.977-40.674,108.842-44.8v21.986c0,12.859,10.424,23.281,23.281,23.281
			c12.857,0,23.281-10.422,23.281-23.281V93.163c38.183,4.411,75.369,19.28,106.875,44.596l-15.902,15.902
			c-9.09,9.093-9.09,23.832,0.003,32.927c4.544,4.544,10.504,6.818,16.459,6.818c5.96,0,11.917-2.274,16.463-6.821l15.826-15.826
			c25.109,31.572,40.004,69.111,44.224,107.779h-21.961c-12.856,0-23.281,10.425-23.281,23.281
			c0,12.859,10.425,23.281,23.281,23.281h21.889c-3.658,32.36-14.878,64.159-33.935,92.595c-7.16,10.68-4.304,25.142,6.374,32.3
			c3.981,2.668,8.485,3.947,12.941,3.947c7.503,0,14.869-3.622,19.362-10.321C536.709,342.411,523.338,206.353,437.083,120.099z"/>
	</g>
</g>
<g>
	<g>
		<path d="M360.924,420.217H151.074c-12.857,0-23.281,10.425-23.281,23.281c0,12.859,10.424,23.281,23.281,23.281h209.851
			c12.859,0,23.281-10.422,23.281-23.281C384.205,430.642,373.783,420.217,360.924,420.217z"/>
	</g>
</g>
<g>
</g>
<g>
</g>
<g>
</g>
<g>
</g>
<g>
</g>
<g>
</g>
<g>
</g>
<g>
</g>
<g>
</g>
<g>
</g>
<g>
</g>
<g>
</g>
<g>
</g>
<g>
</g>
<g>
</g>
</svg>
